<?xml version="1.0" encoding="UTF-8" standalone="no"?>
<!-- Created with Inkscape (http://www.inkscape.org/) -->

<svg
   xmlns:dc="http://purl.org/dc/elements/1.1/"
   xmlns:cc="http://creativecommons.org/ns#"
   xmlns:rdf="http://www.w3.org/1999/02/22-rdf-syntax-ns#"
   xmlns:svg="http://www.w3.org/2000/svg"
   xmlns="http://www.w3.org/2000/svg"
   xmlns:sodipodi="http://sodipodi.sourceforge.net/DTD/sodipodi-0.dtd"
   xmlns:inkscape="http://www.inkscape.org/namespaces/inkscape"
   sodipodi:docname="DFN8.svg"
   inkscape:version="0.92.5 (0.92.5+69)"
   id="svg8"
   version="1.1"
   viewBox="0 0 3 3"
   height="3mm"
   width="3mm">
  <defs
     id="defs2" />
  <sodipodi:namedview
     id="base"
     pagecolor="#ffffff"
     bordercolor="#666666"
     borderopacity="1.0"
     inkscape:pageopacity="0.0"
     inkscape:pageshadow="2"
     inkscape:zoom="53.820702"
     inkscape:cx="2.7177057"
     inkscape:cy="6.7560087"
     inkscape:document-units="mm"
     inkscape:current-layer="layer1"
     showgrid="false"
     inkscape:window-width="1853"
     inkscape:window-height="1025"
     inkscape:window-x="1987"
     inkscape:window-y="27"
     inkscape:window-maximized="1" />
  <metadata
     id="metadata5">
    <rdf:RDF>
      <cc:Work
         rdf:about="">
        <dc:format>image/svg+xml</dc:format>
        <dc:type
           rdf:resource="http://purl.org/dc/dcmitype/StillImage" />
        <dc:title />
      </cc:Work>
    </rdf:RDF>
  </metadata>
  <g
     inkscape:label="Layer 1"
     inkscape:groupmode="layer"
     id="layer1"
     transform="translate(-153.99318,-214.51202)">
    <rect
       style="fill:#1a1a1a;fill-rule:evenodd;stroke-width:0.39687496"
       id="rect815"
       width="3"
       height="3"
       x="153.99318"
       y="214.51202" />
    <circle
       style="fill:#808080;stroke-width:0.18680981"
       id="path817"
       cx="154.27528"
       cy="217.23228"
       r="0.090000004" />
    <rect
       style="opacity:1;vector-effect:none;fill:#666666;fill-opacity:1;stroke-width:0.25933716;stroke-linecap:butt;stroke-linejoin:miter;stroke-miterlimit:4;stroke-dasharray:none;stroke-dashoffset:0;stroke-opacity:1"
       id="rect814"
       width="1.9619507"
       height="1.4724998"
       x="154.53394"
       y="214.83401"
       rx="0.17649254"
       ry="0.22257054" />
    <rect
       style="opacity:1;vector-effect:none;fill:#445500;fill-opacity:1;stroke-width:0.39298236;stroke-linecap:butt;stroke-linejoin:miter;stroke-miterlimit:4;stroke-dasharray:none;stroke-dashoffset:0;stroke-opacity:1"
       id="rect816"
       width="1.4185773"
       height="1.0784506"
       x="154.79526"
       y="215.01653"
       ry="0.069892474"
       rx="0.08066038" />
    <rect
       style="opacity:1;vector-effect:none;fill:#d4aa00;fill-opacity:1;stroke-width:0.35308552;stroke-linecap:butt;stroke-linejoin:miter;stroke-miterlimit:4;stroke-dasharray:none;stroke-dashoffset:0;stroke-opacity:1"
       id="rect816-3"
       width="1.3"
       height="0.94999999"
       x="154.85161"
       y="215.07861"
       ry="0.061567821"
       rx="0.073918074" />
    <path
       d="m 154.88844,215.11289 v 0.88353 m 0.0326,-0.88353 v 0.88353 m 0.0326,-0.88353 v 0.88353 m 0.0326,-0.88353 v 0.88353 m 0.0326,-0.88353 v 0.88353 m 0.0326,-0.88353 v 0.88353 m 0.0326,-0.88353 v 0.88353 m 0.0326,-0.88353 v 0.88353 m 0.0326,-0.88353 v 0.88353 m 0.0326,-0.88353 v 0.88353 m 0.0326,-0.88353 v 0.88353 m 0.0326,-0.88353 v 0.88353 m 0.0326,-0.88353 v 0.88353 m 0.0326,-0.88353 v 0.88353 m 0.0326,-0.88353 v 0.88353 m 0.0326,-0.88353 v 0.88353 m 0.0326,-0.88353 v 0.88353 m 0.0326,-0.88353 v 0.88353 m 0.0326,-0.88353 v 0.88353 m 0.0326,-0.88353 v 0.88353 m 0.0326,-0.88353 v 0.88353 m 0.0326,-0.88353 v 0.88353 m 0.0326,-0.88353 v 0.88353 m 0.0326,-0.88353 v 0.88353 m 0.0326,-0.88353 v 0.88353 m 0.0326,-0.88353 v 0.88353 m 0.0326,-0.88353 v 0.88353 m 0.0326,-0.88353 v 0.88353 m 0.0326,-0.88353 v 0.88353 m 0.0326,-0.88353 v 0.88353 m 0.0326,-0.88353 v 0.88353 m 0.0326,-0.88353 v 0.88353 m 0.0326,-0.88353 v 0.88353 m 0.0326,-0.88353 v 0.88353 m 0.0326,-0.88353 v 0.88353 m 0.0326,-0.88353 v 0.88353 m 0.0326,-0.88353 v 0.88353 m 0.0326,-0.88353 v 0.88353 m -1.20443,-0.88353 h 1.23031 m -1.23031,0.0234 h 1.23031 m -1.23031,0.0234 h 1.23031 m -1.23031,0.0234 h 1.23031 m -1.23031,0.0234 h 1.23031 m -1.23031,0.0234 h 1.23031 m -1.23031,0.0234 h 1.23031 m -1.23031,0.0234 h 1.23031 m -1.23031,0.0234 h 1.23031 m -1.23031,0.0234 h 1.23031 m -1.23031,0.0233 h 1.23031 m -1.23031,0.0234 h 1.23031 m -1.23031,0.0234 h 1.23031 m -1.23031,0.0234 h 1.23031 m -1.23031,0.0234 h 1.23031 m -1.23031,0.0233 h 1.23031 m -1.23031,0.0234 h 1.23031 m -1.23031,0.0234 h 1.23031 m -1.23031,0.0234 h 1.23031 m -1.23031,0.0234 h 1.23031 m -1.23031,0.0233 h 1.23031 m -1.23031,0.0234 h 1.23031 m -1.23031,0.0234 h 1.23031 m -1.23031,0.0234 h 1.23031 m -1.23031,0.0234 h 1.23031 m -1.23031,0.0233 h 1.23031 m -1.23031,0.0234 h 1.23031 m -1.23031,0.0234 h 1.23031 m -1.23031,0.0234 h 1.23031 m -1.23031,0.0234 h 1.23031 m -1.23031,0.0233 h 1.23031 m -1.23031,0.0234 h 1.23031 m -1.23031,0.0234 h 1.23031 m -1.23031,0.0234 h 1.23031 m -1.23031,0.0234 h 1.23031 m -1.23031,0.0233 h 1.23031 m -1.23031,0.0234 h 1.23031 m -1.23031,0.0234 h 1.23031"
       style="fill:none;stroke:#000000;stroke-width:0.00551708px"
       id="path2458"
       inkscape:connector-curvature="0" />
  </g>
</svg>
