<?xml version="1.0" encoding="UTF-8" standalone="no"?>
<!-- Created with Inkscape (http://www.inkscape.org/) -->

<svg
   xmlns:dc="http://purl.org/dc/elements/1.1/"
   xmlns:cc="http://creativecommons.org/ns#"
   xmlns:rdf="http://www.w3.org/1999/02/22-rdf-syntax-ns#"
   xmlns:svg="http://www.w3.org/2000/svg"
   xmlns="http://www.w3.org/2000/svg"
   xmlns:sodipodi="http://sodipodi.sourceforge.net/DTD/sodipodi-0.dtd"
   xmlns:inkscape="http://www.inkscape.org/namespaces/inkscape"
   width="18.936157mm"
   height="12.07mm"
   viewBox="0 0 18.936157 12.07"
   version="1.1"
   id="svg8"
   inkscape:version="0.92.5 (2060ec1f9f, 2020-04-08)"
   sodipodi:docname="IMRAN CR1220.svg">
  <defs
     id="defs2" />
  <sodipodi:namedview
     id="base"
     pagecolor="#ffffff"
     bordercolor="#666666"
     borderopacity="1.0"
     inkscape:pageopacity="0.0"
     inkscape:pageshadow="2"
     inkscape:zoom="7.9195959"
     inkscape:cx="2.8076497"
     inkscape:cy="33.282778"
     inkscape:document-units="mm"
     inkscape:current-layer="layer1"
     showgrid="false"
     inkscape:window-width="1920"
     inkscape:window-height="1001"
     inkscape:window-x="-9"
     inkscape:window-y="-9"
     inkscape:window-maximized="1" />
  <metadata
     id="metadata5">
    <rdf:RDF>
      <cc:Work
         rdf:about="">
        <dc:format>image/svg+xml</dc:format>
        <dc:type
           rdf:resource="http://purl.org/dc/dcmitype/StillImage" />
        <dc:title />
      </cc:Work>
    </rdf:RDF>
  </metadata>
  <g
     inkscape:label="Layer 1"
     inkscape:groupmode="layer"
     id="layer1"
     transform="translate(-53.253456,-16.919641)">
    <rect
       style="fill:#666666;fill-rule:evenodd;stroke-width:0.26458332"
       id="rect817"
       width="2.8599999"
       height="3.7"
       x="53.286865"
       y="20.175587" />
    <rect
       style="fill:#666666;fill-rule:evenodd;stroke-width:0.26458332"
       id="rect817-9"
       width="2.8599999"
       height="3.7"
       x="69.346313"
       y="20.196472" />
    <rect
       style="fill:#cccccc;fill-rule:evenodd;stroke-width:0.28619874"
       id="rect834"
       width="13.213137"
       height="8.8344269"
       x="56.119682"
       y="17.890545" />
    <ellipse
       style="fill:#cccccc;stroke-width:0.40234935"
       id="path876"
       cx="58.415192"
       cy="18.42993"
       rx="2.1851747"
       ry="1.5119048" />
    <ellipse
       style="fill:#cccccc;stroke-width:0.40234935"
       id="path876-1"
       cx="67.019043"
       cy="18.412039"
       rx="2.1851747"
       ry="1.5119048" />
    <path
       style="fill:#cccccc;stroke-width:0.26458332"
       id="path900"
       sodipodi:type="arc"
       sodipodi:cx="62.048527"
       sodipodi:cy="-8.4557095"
       sodipodi:rx="0.71828687"
       sodipodi:ry="0.78510422"
       sodipodi:start="0"
       sodipodi:end="3.1598139"
       d="m 62.766814,-8.4557095 a 0.71828687,0.78510422 0 0 1 -0.362929,0.6822919 0.71828687,0.78510422 0 0 1 -0.722031,-0.00719 0.71828687,0.78510422 0 0 1 -0.351495,-0.6894064 l 0.718168,0.014305 z"
       transform="rotate(23.912449)" />
    <path
       style="fill:#cccccc;stroke-width:0.26458332"
       id="path900-1"
       sodipodi:type="arc"
       sodipodi:cx="63.087002"
       sodipodi:cy="-5.5641427"
       sodipodi:rx="0.71828687"
       sodipodi:ry="0.78510422"
       sodipodi:start="0"
       sodipodi:end="3.1598139"
       d="m 63.805289,-5.5641427 a 0.71828687,0.78510422 0 0 1 -0.362929,0.6822919 0.71828687,0.78510422 0 0 1 -0.722031,-0.00719 0.71828687,0.78510422 0 0 1 -0.351495,-0.6894064 l 0.718168,0.014305 z"
       transform="rotate(21.317897)" />
    <path
       style="fill:#cccccc;stroke-width:0.26458332"
       id="path900-0"
       sodipodi:type="arc"
       sodipodi:cx="63.413185"
       sodipodi:cy="2.9104617"
       sodipodi:rx="0.71828687"
       sodipodi:ry="0.78510422"
       sodipodi:start="0"
       sodipodi:end="3.1598139"
       d="m 64.131472,2.9104617 a 0.71828687,0.78510422 0 0 1 -0.362928,0.6822919 0.71828687,0.78510422 0 0 1 -0.722032,-0.00719 0.71828687,0.78510422 0 0 1 -0.351495,-0.6894064 l 0.718168,0.014305 z"
       transform="rotate(13.583162)" />
    <path
       style="fill:#cccccc;stroke-width:0.26458332"
       id="path900-2"
       sodipodi:type="arc"
       sodipodi:cx="62.892635"
       sodipodi:cy="11.019897"
       sodipodi:rx="0.71828687"
       sodipodi:ry="0.78510422"
       sodipodi:start="0"
       sodipodi:end="3.1598139"
       d="m 63.610922,11.019897 a 0.71828687,0.78510422 0 0 1 -0.362928,0.682292 0.71828687,0.78510422 0 0 1 -0.722032,-0.0072 0.71828687,0.78510422 0 0 1 -0.351494,-0.689406 l 0.718167,0.0143 z"
       transform="rotate(6.205346)" />
    <path
       style="fill:#cccccc;stroke-width:0.26458332"
       id="path900-5"
       sodipodi:type="arc"
       sodipodi:cx="63.290134"
       sodipodi:cy="4.9772854"
       sodipodi:rx="0.71828687"
       sodipodi:ry="0.78510422"
       sodipodi:start="0"
       sodipodi:end="3.1598139"
       d="M 64.008421,4.9772854 A 0.71828687,0.78510422 0 0 1 63.645493,5.6595773 0.71828687,0.78510422 0 0 1 62.923461,5.652387 0.71828687,0.78510422 0 0 1 62.571967,4.9629806 l 0.718167,0.014305 z"
       transform="rotate(11.674526)" />
    <path
       style="fill:#cccccc;stroke-width:0.26458332"
       id="path900-28"
       sodipodi:type="arc"
       sodipodi:cx="62.732971"
       sodipodi:cy="16.618402"
       sodipodi:rx="0.71828687"
       sodipodi:ry="0.78510422"
       sodipodi:start="0"
       sodipodi:end="3.1598139"
       d="m 63.451258,16.618402 a 0.71828687,0.78510422 0 0 1 -0.362928,0.682292 0.71828687,0.78510422 0 0 1 -0.722032,-0.0072 0.71828687,0.78510422 0 0 1 -0.351494,-0.689406 l 0.718167,0.0143 z"
       transform="rotate(1.1079762)" />
    <path
       style="fill:#cccccc;stroke-width:0.26458332"
       id="path900-06"
       sodipodi:type="arc"
       sodipodi:cx="61.751625"
       sodipodi:cy="22.670296"
       sodipodi:rx="0.71828687"
       sodipodi:ry="0.78510422"
       sodipodi:start="0"
       sodipodi:end="3.1598139"
       d="m 62.469912,22.670296 a 0.71828687,0.78510422 0 0 1 -0.362928,0.682292 0.71828687,0.78510422 0 0 1 -0.722032,-0.0072 0.71828687,0.78510422 0 0 1 -0.351495,-0.689406 l 0.718168,0.01431 z"
       transform="rotate(-4.4405539)" />
    <path
       style="fill:#cccccc;stroke-width:0.26458332"
       id="path900-06-6"
       sodipodi:type="arc"
       sodipodi:cx="60.704514"
       sodipodi:cy="28.300283"
       sodipodi:rx="0.71828687"
       sodipodi:ry="0.78510422"
       sodipodi:start="0"
       sodipodi:end="3.1598139"
       d="m 61.4228,28.300283 a 0.71828687,0.78510422 0 0 1 -0.362928,0.682292 0.71828687,0.78510422 0 0 1 -0.722032,-0.0072 0.71828687,0.78510422 0 0 1 -0.351494,-0.689406 l 0.718168,0.0143 z"
       transform="rotate(-9.6909232)" />
    <path
       style="fill:#cccccc;stroke-width:0.18316814"
       id="path900-06-6-6"
       sodipodi:type="arc"
       sodipodi:cx="58.126518"
       sodipodi:cy="34.220497"
       sodipodi:rx="0.49457097"
       sodipodi:ry="0.5464766"
       sodipodi:start="0"
       sodipodi:end="3.1598139"
       d="m 58.621089,34.220497 a 0.49457097,0.5464766 0 0 1 -0.249891,0.474914 0.49457097,0.5464766 0 0 1 -0.49715,-0.005 0.49457097,0.5464766 0 0 1 -0.242019,-0.479866 l 0.494489,0.01 z"
       transform="matrix(0.96407354,-0.2656355,0.26195241,0.96508079,0,0)" />
    <path
       style="fill:#cccccc;stroke-width:0.14842796"
       id="path900-06-6-9"
       sodipodi:type="arc"
       sodipodi:cx="47.171257"
       sodipodi:cy="45.674671"
       sodipodi:rx="0.43770203"
       sodipodi:ry="0.40546486"
       sodipodi:start="0"
       sodipodi:end="3.1598139"
       d="m 47.608959,45.674671 a 0.43770203,0.40546486 0 0 1 -0.221157,0.352368 0.43770203,0.40546486 0 0 1 -0.439984,-0.0037 0.43770203,0.40546486 0 0 1 -0.21419,-0.356042 l 0.437629,0.0074 z"
       transform="matrix(0.88706118,-0.46165189,0.51273,0.85854991,0,0)" />
    <path
       style="fill:#cccccc;stroke-width:0.14842796"
       id="path900-06-6-9-6"
       sodipodi:type="arc"
       sodipodi:cx="56.97831"
       sodipodi:cy="32.295689"
       sodipodi:rx="0.43770203"
       sodipodi:ry="0.40546486"
       sodipodi:start="0"
       sodipodi:end="3.1598139"
       d="m 57.416012,32.295689 a 0.43770203,0.40546486 0 0 1 -0.221158,0.352367 0.43770203,0.40546486 0 0 1 -0.439984,-0.0037 0.43770203,0.40546486 0 0 1 -0.21419,-0.356042 l 0.43763,0.0074 z"
       transform="matrix(0.97249335,-0.23293064,0.28939546,0.95720963,0,0)" />
    <rect
       style="fill:#cccccc;fill-rule:evenodd;stroke-width:0.26458332"
       id="rect998"
       width="7.1399999"
       height="3.3742776"
       x="59.133389"
       y="25.615362" />
    <rect
       style="fill:#cccccc;fill-rule:evenodd;stroke-width:0.24738987"
       id="rect1000"
       width="3.6112878"
       height="2.8768876"
       x="61.813915"
       y="-15.454737"
       transform="matrix(0.79857756,0.60189192,-0.5475361,0.83678206,0,0)" />
    <rect
       style="fill:#cccccc;fill-rule:evenodd;stroke-width:0.24976961"
       id="rect1000-4"
       width="3.6350362"
       height="2.9133432"
       x="31.397646"
       y="59.625935"
       transform="matrix(0.80858046,-0.58838562,0.65357413,0.75686251,0,0)" />
    <ellipse
       style="fill:#4d4d4d;stroke-width:0.37696528"
       id="path1017"
       cx="62.844604"
       cy="25.646915"
       rx="0.89769346"
       ry="0.88588172" />
    <rect
       style="fill:#4d4d4d;fill-rule:evenodd;stroke-width:0.29923305"
       id="rect1019"
       width="0.51971728"
       height="3.8978794"
       x="62.584743"
       y="23.697977"
       ry="0.40000001"
       rx="0.5" />
    <rect
       style="fill:#4d4d4d;fill-rule:evenodd;stroke-width:0.30013856"
       id="rect1019-4"
       width="0.51971775"
       height="3.9215019"
       x="-25.786369"
       y="60.834846"
       ry="0.39999995"
       rx="0.49999988"
       transform="matrix(0.00224229,-0.99999749,0.99999908,0.00135411,0,0)" />
    <circle
       style="fill:#4d4d4d;stroke-width:0.26458332"
       id="path1042"
       cx="59.242016"
       cy="23.449926"
       r="1.5945871" />
    <ellipse
       style="fill:#4d4d4d;stroke-width:0.25963742"
       id="path1042-3"
       cx="66.29364"
       cy="23.449928"
       rx="1.5945871"
       ry="1.5355283" />
    <rect
       style="fill:#999999;fill-rule:evenodd;stroke-width:0.28167045"
       id="rect1061"
       width="1.5700001"
       height="6.0239954"
       x="65.502289"
       y="18.503725"
       rx="0.80000001"
       ry="0.89999998" />
    <rect
       style="fill:#999999;fill-rule:evenodd;stroke-width:0.28167045"
       id="rect1061-5"
       width="1.5700001"
       height="6.0239954"
       x="58.45126"
       y="18.449854"
       rx="0.80000001"
       ry="0.90000004" />
    <rect
       style="fill:#cccccc;fill-rule:evenodd;stroke-width:0.20886549"
       id="rect1078"
       width="2.9056923"
       height="1.4410342"
       x="57.887554"
       y="17.751358" />
    <rect
       style="fill:#cccccc;fill-rule:evenodd;stroke-width:0.20886549"
       id="rect1078-2"
       width="2.9056923"
       height="1.4410342"
       x="64.769066"
       y="17.765774" />
    <rect
       style="fill:#4d4d4d;fill-rule:evenodd;stroke-width:0.26458332"
       id="rect1095"
       width="1.3229166"
       height="0.070870534"
       x="58.592369"
       y="22.044329" />
    <rect
       style="fill:#4d4d4d;fill-rule:evenodd;stroke-width:0.26458332"
       id="rect1095-2"
       width="1.3229166"
       height="0.070870534"
       x="65.632179"
       y="22.079763" />
    <rect
       style="fill:#4d4d4d;fill-rule:evenodd;stroke-width:0.26458332"
       id="rect1095-6"
       width="1.3229166"
       height="0.070870534"
       x="58.565792"
       y="19.194742" />
    <rect
       style="fill:#4d4d4d;fill-rule:evenodd;stroke-width:0.26458332"
       id="rect1095-6-2"
       width="1.3229166"
       height="0.070870534"
       x="65.632179"
       y="19.206553" />
    <rect
       style="fill:#4d4d4d;fill-rule:evenodd;stroke-width:0.23452805"
       id="rect1095-6-1"
       width="1.0394344"
       height="0.070870534"
       x="58.697712"
       y="19.307411" />
    <rect
       style="fill:#4d4d4d;fill-rule:evenodd;stroke-width:0.23452805"
       id="rect1095-6-1-2"
       width="1.0394344"
       height="0.070870534"
       x="58.716393"
       y="22.156542" />
    <rect
       style="fill:#4d4d4d;fill-rule:evenodd;stroke-width:0.23452805"
       id="rect1095-6-1-1"
       width="1.0394344"
       height="0.070870534"
       x="65.769737"
       y="19.313148" />
    <rect
       style="fill:#4d4d4d;fill-rule:evenodd;stroke-width:0.23452805"
       id="rect1095-6-1-8"
       width="1.0394344"
       height="0.070870534"
       x="65.770721"
       y="22.176023" />
    <rect
       style="fill:#4d4d4d;fill-rule:evenodd;stroke-width:0.19365516"
       id="rect1095-6-1-7"
       width="0.70870525"
       height="0.070870534"
       x="58.85717"
       y="19.413717" />
    <rect
       style="fill:#4d4d4d;fill-rule:evenodd;stroke-width:0.19365516"
       id="rect1095-6-1-7-9"
       width="0.70870525"
       height="0.070870534"
       x="65.925995"
       y="19.417688" />
    <rect
       style="fill:#4d4d4d;fill-rule:evenodd;stroke-width:0.19365516"
       id="rect1095-6-1-7-2"
       width="0.70870525"
       height="0.070870534"
       x="65.950851"
       y="22.276424" />
    <rect
       style="fill:#4d4d4d;fill-rule:evenodd;stroke-width:0.19365516"
       id="rect1095-6-1-7-0"
       width="0.70870525"
       height="0.070870534"
       x="58.86404"
       y="22.262846" />
  </g>
</svg>
