<?xml version="1.0" encoding="UTF-8" standalone="no"?>
<!-- Created with Inkscape (http://www.inkscape.org/) -->

<svg
   xmlns:dc="http://purl.org/dc/elements/1.1/"
   xmlns:cc="http://creativecommons.org/ns#"
   xmlns:rdf="http://www.w3.org/1999/02/22-rdf-syntax-ns#"
   xmlns:svg="http://www.w3.org/2000/svg"
   xmlns="http://www.w3.org/2000/svg"
   xmlns:sodipodi="http://sodipodi.sourceforge.net/DTD/sodipodi-0.dtd"
   xmlns:inkscape="http://www.inkscape.org/namespaces/inkscape"
   width="14.833903mm"
   height="16.384405mm"
   viewBox="0 0 14.833903 16.384405"
   version="1.1"
   id="svg8"
   inkscape:version="0.92.5 (2060ec1f9f, 2020-04-08)"
   sodipodi:docname="IMRAN MICRO SD HOLDER.svg">
  <defs
     id="defs2">
    <inkscape:perspective
       sodipodi:type="inkscape:persp3d"
       inkscape:vp_x="0 : 10.866815 : 1"
       inkscape:vp_y="0 : 1000 : 0"
       inkscape:vp_z="17.80181 : 10.866815 : 1"
       inkscape:persp3d-origin="8.9009048 : 7.2445431 : 1"
       id="perspective1023" />
  </defs>
  <sodipodi:namedview
     id="base"
     pagecolor="#ffffff"
     bordercolor="#666666"
     borderopacity="1.0"
     inkscape:pageopacity="0.0"
     inkscape:pageshadow="2"
     inkscape:zoom="5.6568545"
     inkscape:cx="56.626255"
     inkscape:cy="170.36172"
     inkscape:document-units="mm"
     inkscape:current-layer="layer1"
     showgrid="false"
     inkscape:window-width="1920"
     inkscape:window-height="1001"
     inkscape:window-x="-9"
     inkscape:window-y="-9"
     inkscape:window-maximized="1" />
  <metadata
     id="metadata5">
    <rdf:RDF>
      <cc:Work
         rdf:about="">
        <dc:format>image/svg+xml</dc:format>
        <dc:type
           rdf:resource="http://purl.org/dc/dcmitype/StillImage" />
        <dc:title />
      </cc:Work>
    </rdf:RDF>
  </metadata>
  <g
     inkscape:label="Layer 1"
     inkscape:groupmode="layer"
     id="layer1"
     transform="translate(-18.865633,-47.807129)">
    <rect
       style="fill:#ececec;fill-rule:evenodd;stroke-width:0.25811595"
       id="rect4747"
       width="13.186019"
       height="15.944153"
       x="20.225674"
       y="47.819195" />
    <rect
       style="fill:#ececec;fill-rule:evenodd;stroke-width:0.23262717"
       id="rect4812"
       width="2.161412"
       height="0.75002491"
       x="21.192932"
       y="63.406433"
       rx="0.54615384"
       ry="0.14210525" />
    <path
       style="fill:#cccccc;fill-rule:evenodd;stroke-width:0.34723341"
       d="m 30.453276,62.504395 h 1.41489 c 0.334531,0 0.603847,0.159822 0.603847,0.358345 v 0.912783 c 0,0.198522 -0.269319,0.381921 -0.603847,0.38173 l -1.391504,-7.96e-4 c -0.08798,-5e-5 -0.63917,-0.39639 -0.638925,-0.414811 l 0.01169,-0.878904 c 0.0026,-0.198506 0.269315,-0.358344 0.603846,-0.358344 z"
       id="rect4812-3"
       inkscape:connector-curvature="0"
       sodipodi:nodetypes="cssssssssc" />
    <rect
       style="fill:#b3b3b3;fill-rule:evenodd;stroke-width:0.64169216"
       id="rect4857"
       width="1.5532446"
       height="1.7245164"
       x="32.134602"
       y="62.080112"
       ry="0.60833347"
       rx="0.43823498"
       inkscape:transform-center-x="2.5126028"
       inkscape:transform-center-y="-1.4371002" />
    <rect
       style="fill:#b3b3b3;fill-rule:evenodd;stroke-width:0.26458332"
       id="rect4864"
       width="0.53152901"
       height="0.66145831"
       x="31.860392"
       y="62.524891"
       rx="0.43823466"
       ry="0.60833263" />
    <rect
       style="fill:#cccccc;fill-rule:evenodd;stroke-width:0.35955679"
       id="rect4875"
       width="7.8510423"
       height="1.2695302"
       x="21.897238"
       y="62.487694"
       rx="0.5540275"
       ry="0.30000001" />
    <rect
       style="fill:#b3b3b3;fill-rule:evenodd;stroke-width:0.25381282"
       id="rect4747-2"
       width="13.661012"
       height="14.880923"
       x="20.019491"
       y="48.125515" />
    <rect
       transform="translate(-2.083333e-8,-1.2291667e-6)"
       style="fill:#b3b3b3;fill-rule:evenodd;stroke-width:0.31311926"
       id="rect4838-0"
       width="1.3363476"
       height="1.0673993"
       x="20.402197"
       y="62.086788" />
    <path
       style="fill:#b3b3b3;stroke-width:0.29594344"
       id="path4768"
       sodipodi:type="arc"
       sodipodi:cx="1.3620318"
       sodipodi:cy="-66.784805"
       sodipodi:rx="2.0415564"
       sodipodi:ry="0.85362011"
       sodipodi:start="0"
       sodipodi:end="3.1883849"
       d="m 3.4035882,-66.784805 a 2.0415564,0.85362011 0 0 1 -1.0484781,0.745823 2.0415564,0.85362011 0 0 1 -2.06850459,-0.02024 2.0415564,0.85362011 0 0 1 -0.96389545,-0.765514 l 2.03932174,0.03993 z"
       transform="matrix(0.96980396,-0.24388579,-0.3231492,-0.94634804,-2.083333e-8,-1.2291667e-6)" />
    <path
       style="fill:#b3b3b3;stroke-width:0.25524652"
       id="path4768-6"
       sodipodi:type="arc"
       sodipodi:cx="-50.951748"
       sodipodi:cy="-52.679897"
       sodipodi:rx="1.538506"
       sodipodi:ry="0.8426162"
       sodipodi:start="0"
       sodipodi:end="3.1883849"
       d="m -49.413242,-52.679897 a 1.538506,0.8426162 0 0 1 -0.790127,0.736209 1.538506,0.8426162 0 0 1 -1.558814,-0.01998 1.538506,0.8426162 0 0 1 -0.726387,-0.755645 l 1.536822,0.03941 z"
       transform="matrix(-0.96353768,-0.26757273,0.34917327,-0.93705818,-2.083333e-8,-1.2291667e-6)" />
    <rect
       style="fill:#b3b3b3;fill-rule:evenodd;stroke-width:0.7351684"
       id="rect4947"
       width="13.85"
       height="12.662659"
       x="19.840637"
       y="48.03569" />
    <rect
       style="fill:#ececec;fill-rule:evenodd;stroke-width:0.28505567"
       id="rect4921"
       width="2.1412983"
       height="2.3414621"
       x="-33.856827"
       y="47.765911"
       rx="0.49683249"
       ry="0.49731514"
       transform="matrix(0.6387412,-0.76942166,0.84713289,0.53138109,0,0)" />
    <rect
       style="fill:#ececec;fill-rule:evenodd;stroke-width:0.14000434"
       id="rect4919"
       width="0.49609381"
       height="1.4646577"
       x="20.027815"
       y="49.298645" />
    <rect
       style="fill:#ececec;fill-rule:evenodd;stroke-width:0.16053987"
       id="rect4917"
       width="0.76839983"
       height="4.8108511"
       x="19.755508"
       y="49.298645"
       rx="0.13269231"
       ry="0.24971099" />
    <path
       style="fill:#ececec;fill-rule:evenodd;stroke-width:0.19259498"
       d="m 20.336448,51.640936 c -0.154605,0 -0.279053,0.127069 -0.279053,0.284849 v 1.30047 c 0,0.157781 0.124448,0.284851 0.279053,0.284851 h 0.38654 c 0.154604,0 0.279053,-0.12707 0.279053,-0.284851 v -1.30047 c 0,-0.15778 -0.124449,-0.284849 -0.279053,-0.284849 z"
       id="rect4923"
       inkscape:connector-curvature="0" />
    <rect
       style="fill:#b3b3b3;fill-rule:evenodd;stroke-width:0.23251399"
       id="rect4925"
       width="0.63783485"
       height="1.8426342"
       x="20.36445"
       y="53.507095"
       rx="0.23720926"
       ry="0.21946043" />
    <rect
       style="fill:#ececec;fill-rule:evenodd;stroke-width:0.27980176"
       id="rect4927"
       width="0.73973888"
       height="3.4017856"
       x="19.624712"
       y="53.507095"
       rx="0.071428441"
       ry="0.1" />
    <rect
       style="fill:#ffffff;fill-rule:evenodd;stroke-width:0.49374291"
       id="rect4929"
       width="0.98174757"
       height="8.0765514"
       x="18.865633"
       y="49.04808" />
    <rect
       style="fill:#808080;fill-rule:evenodd;stroke-width:0.23370849"
       id="rect4956"
       width="1.1208615"
       height="3.7918863"
       x="19.858088"
       y="57.964989"
       rx="0.31209302"
       ry="0.30000001" />
    <rect
       style="fill:#808080;fill-rule:evenodd;stroke-width:0.30221033"
       id="rect4958"
       width="0.38436785"
       height="3.7960627"
       x="19.847063"
       y="57.960815" />
    <rect
       style="fill:#f9f9f9;fill-rule:evenodd;stroke-width:0.16761421"
       id="rect4883-0"
       width="0.90371352"
       height="4.5600824"
       x="23.004736"
       y="54.361866"
       rx="0.59408689"
       ry="0.78499997" />
    <rect
       style="fill:#f9f9f9;fill-rule:evenodd;stroke-width:0.16761422"
       id="rect4883-0-85"
       width="0.90371358"
       height="4.5600824"
       x="27.507343"
       y="54.337814"
       rx="0.59408689"
       ry="0.78499997" />
    <rect
       style="fill:#808080;fill-rule:evenodd;stroke-width:0.26794377"
       id="rect4978"
       width="0.7752769"
       height="2.0788691"
       x="32.924259"
       y="52.305958"
       rx="0.16310075"
       ry="0.2" />
    <rect
       style="fill:#e6e6e6;fill-rule:evenodd;stroke-width:0.26458332"
       id="rect5001"
       width="0.75595242"
       height="2.0788691"
       x="32.934685"
       y="58.394634" />
    <rect
       style="fill:#cccccc;fill-rule:evenodd;stroke-width:0.26458332"
       id="rect5001-2"
       width="0.75595242"
       height="2.0788691"
       x="32.828381"
       y="58.391682" />
    <rect
       style="fill:#808080;fill-rule:evenodd;stroke-width:0.25439847"
       id="rect4978-4"
       width="0.69689363"
       height="2.084775"
       x="32.756893"
       y="58.394981"
       rx="0.2"
       ry="0.2" />
    <rect
       style="fill:#808080;fill-rule:evenodd;stroke-width:0.25439847"
       id="rect4978-4-8"
       width="0.69689363"
       height="2.084775"
       x="31.685036"
       y="58.438896"
       rx="0.2"
       ry="0.2" />
    <rect
       style="fill:#b3b3b3;fill-rule:evenodd;stroke-width:0.49228707"
       id="rect5035"
       width="0.36616442"
       height="2.084775"
       x="32.562"
       y="58.394981" />
    <rect
       style="fill:#ffffff;fill-rule:evenodd;stroke-width:0.17275351"
       id="rect5043"
       width="0.23866016"
       height="0.46653438"
       x="-20.99288"
       y="47.808777"
       rx="0.1"
       ry="0.1"
       transform="scale(-1,1)" />
    <rect
       style="fill:#ffffff;fill-rule:evenodd;stroke-width:0.20067924"
       id="rect5045"
       width="13.85"
       height="0.22484674"
       x="19.840637"
       y="47.810844" />
    <rect
       style="fill:#b3b3b3;fill-rule:evenodd;stroke-width:0.35084695"
       id="rect5047"
       width="0.91385585"
       height="1.0984933"
       x="19.840637"
       y="47.810844" />
    <rect
       style="fill:#333333;fill-rule:evenodd;stroke-width:0.4679288"
       id="rect858"
       width="0.34999999"
       height="0.22442335"
       x="26.147026"
       y="47.815403" />
    <rect
       style="fill:#333333;fill-rule:evenodd;stroke-width:0.46792886"
       id="rect858-7"
       width="0.34999999"
       height="0.22442336"
       x="29.376167"
       y="47.811649" />
    <rect
       style="fill:#333333;fill-rule:evenodd;stroke-width:0.46792886"
       id="rect858-4"
       width="0.34999999"
       height="0.22442336"
       x="25.075823"
       y="47.810913" />
    <rect
       style="fill:#333333;fill-rule:evenodd;stroke-width:0.46900508"
       id="rect858-5"
       width="0.34999999"
       height="0.22545689"
       x="23.987902"
       y="47.810207" />
    <rect
       style="fill:#333333;fill-rule:evenodd;stroke-width:0.46792886"
       id="rect858-41"
       width="0.34999999"
       height="0.22442336"
       x="22.869328"
       y="47.812893" />
    <rect
       style="fill:#1a1a1a;fill-rule:evenodd;stroke-width:0.46792886"
       id="rect858-0"
       width="0.34999999"
       height="0.22442336"
       x="27.218418"
       y="47.807129" />
    <rect
       style="fill:#333333;fill-rule:evenodd;stroke-width:0.46792886"
       id="rect858-2"
       width="0.34999999"
       height="0.22442336"
       x="28.287531"
       y="47.811268" />
    <rect
       style="fill:#333333;fill-rule:evenodd;stroke-width:0.47082952"
       id="rect858-1"
       width="0.35435268"
       height="0.22442336"
       x="21.686632"
       y="47.810844" />
    <rect
       style="fill:#ffffff;fill-rule:evenodd;stroke-width:0.21051992"
       id="rect5043-5"
       width="0.35441536"
       height="0.46653438"
       x="-30.26293"
       y="47.809509"
       rx="0.10000001"
       ry="0.1"
       transform="scale(-1,1)" />
    <rect
       style="fill:#ffffff;fill-rule:evenodd;stroke-width:0.37701806"
       id="rect947"
       width="2.7533143"
       height="0.18190104"
       x="30.257959"
       y="47.927361" />
    <rect
       style="fill:#b3b3b3;fill-rule:evenodd;stroke-width:0.37859771"
       id="rect949"
       width="0.40514323"
       height="0.72140294"
       x="31.833895"
       y="47.815716" />
    <rect
       style="fill:#b3b3b3;fill-rule:evenodd;stroke-width:0.2776061"
       id="rect949-2"
       width="0.22099258"
       height="0.71106768"
       x="33.005074"
       y="47.815739" />
    <rect
       style="fill:#f2f2f2;fill-rule:evenodd;stroke-width:0.31485659"
       id="rect966"
       width="0.46772164"
       height="0.76004767"
       x="33.226067"
       y="48.012314" />
    <rect
       style="fill:#999999;fill-rule:evenodd;stroke-width:0.25707901"
       id="rect974"
       width="0.56223959"
       height="1.1864909"
       x="30.574108"
       y="47.810543"
       ry="0.35699999"
       rx="0.40000001" />
    <rect
       style="fill:#b3b3b3;fill-rule:evenodd;stroke-width:0.23670301"
       id="rect977"
       width="0.68212891"
       height="1.0169921"
       x="30.507404"
       y="48.108925" />
    <rect
       style="fill:#4d4d4d;fill-rule:evenodd;stroke-width:0.28397825"
       id="rect983"
       width="1.145918"
       height="5.9400654"
       x="21.189102"
       y="56.421501"
       rx="0.39399999"
       ry="0.3850005" />
    <rect
       style="fill:#666666;fill-rule:evenodd;stroke-width:0.26034102"
       id="rect983-5"
       width="1.6089389"
       height="3.5556586"
       x="30.408186"
       y="49.787376"
       rx="0.39400002"
       ry="0.3850005" />
    <rect
       style="fill:#b3b3b3;fill-rule:evenodd;stroke-width:0.27368471"
       id="rect1000"
       width="0.65598559"
       height="5.5308084"
       x="21.446218"
       y="57.047085"
       rx="0.39399898"
       ry="0.3850005" />
    <rect
       style="fill:#4d4d4d;fill-rule:evenodd;stroke-width:0.12733801"
       id="rect983-3"
       width="0.25724792"
       height="5.3203325"
       x="21.188971"
       y="57.257561"
       rx="0.39399999"
       ry="0.3850005" />
    <path
       style="fill:#b3b3b3;stroke-width:0.26660487"
       id="path1021"
       sodipodi:type="arc"
       sodipodi:cx="-61.534657"
       sodipodi:cy="36.419075"
       sodipodi:rx="0.3348636"
       sodipodi:ry="0.38197508"
       sodipodi:start="0"
       sodipodi:end="2.9486989"
       sodipodi:open="true"
       d="m -61.199793,36.419075 a 0.3348636,0.38197508 0 0 1 -0.302617,0.3802 0.3348636,0.38197508 0 0 1 -0.3609,-0.306975"
       transform="matrix(0.24245364,-0.97016299,0.99749154,0.07078579,0,0)" />
    <rect
       style="fill:#b3b3b3;fill-rule:evenodd;stroke-width:0.40071431"
       id="rect1039"
       width="0.41341144"
       height="4.1344123"
       x="22.709103"
       y="58.35778"
       transform="matrix(1,0,-0.01199914,0.99992801,0,0)" />
    <rect
       style="fill:#4d4d4d;fill-rule:evenodd;stroke-width:0.31430981"
       id="rect1041"
       width="0.2360722"
       height="3.1238613"
       x="11.285069"
       y="62.701027"
       rx="0.099450909"
       ry="0.099718228"
       transform="matrix(0.95392139,-0.30005664,0.18059273,0.98355796,0,0)" />
    <rect
       style="fill:#aa8800;fill-rule:evenodd;stroke-width:0.34966186"
       id="rect1080"
       width="1.4474611"
       height="0.64406478"
       x="-64.20694"
       y="19.551968"
       rx="0.19999236"
       ry="0.19993584"
       transform="matrix(-0.00409934,-0.9999916,0.99975432,-0.02216526,0,0)" />
    <path
       style="fill:#ffffff;stroke-width:0.33813038"
       id="path1082"
       sodipodi:type="arc"
       sodipodi:cx="-64.434311"
       sodipodi:cy="16.089754"
       sodipodi:rx="0.12768361"
       sodipodi:ry="0.14122316"
       sodipodi:start="0"
       sodipodi:end="3.2353787"
       d="m -64.306627,16.089754 a 0.12768361,0.14122316 0 0 1 -0.06733,0.12445 0.12768361,0.14122316 0 0 1 -0.13098,-0.0068 0.12768361,0.14122316 0 0 1 -0.0565,-0.130877 l 0.127122,0.01322 z"
       transform="matrix(-0.05899319,-0.99825839,0.99461769,-0.10361298,0,0)" />
    <rect
       style="fill:#b3b3b3;fill-rule:evenodd;stroke-width:0.59753484"
       id="rect1105"
       width="0.50022787"
       height="1.1823567"
       x="20.032738"
       y="62.224693" />
    <rect
       style="fill:#666666;fill-rule:evenodd;stroke-width:0.23665051"
       id="rect1107"
       width="0.06614583"
       height="0.19016927"
       x="19.966873"
       y="62.930435" />
    <rect
       style="fill:#ececec;fill-rule:evenodd;stroke-width:0.31583989"
       id="rect1109"
       width="0.62838542"
       height="0.36214352"
       x="20.032738"
       y="63.407051" />
    <rect
       style="fill:#4d4d4d;fill-rule:evenodd;stroke-width:0.28397828"
       id="rect983-1"
       width="1.1459181"
       height="5.9400654"
       x="29.096903"
       y="56.28968"
       rx="0.39399999"
       ry="0.3850005" />
    <rect
       style="fill:#b3b3b3;fill-rule:evenodd;stroke-width:0.27368471"
       id="rect1000-6"
       width="0.65598565"
       height="5.5308084"
       x="29.310375"
       y="56.915123"
       rx="0.39399898"
       ry="0.3850005" />
    <rect
       style="fill:#4d4d4d;fill-rule:evenodd;stroke-width:0.13136706"
       id="rect983-3-4"
       width="0.27378437"
       height="5.3203325"
       x="29.96636"
       y="57.125599"
       rx="0.39400002"
       ry="0.3850005" />
    <rect
       style="fill:#b3b3b3;fill-rule:evenodd;stroke-width:0.40071431"
       id="rect1039-5"
       width="0.413412"
       height="4.1344142"
       x="29.704849"
       y="58.321861"
       transform="matrix(1,0,-0.01199915,0.99992801,0,0)" />
    <rect
       style="fill:#4d4d4d;fill-rule:evenodd;stroke-width:0.30985332"
       id="rect1041-46"
       width="0.2270354"
       height="3.1567452"
       x="38.365986"
       y="49.590691"
       rx="0.065290496"
       ry="0.083733864"
       transform="matrix(0.97050381,0.24108579,-0.16391062,0.98647519,0,0)" />
    <rect
       style="fill:#4d4d4d;fill-rule:evenodd;stroke-width:0.2120557"
       id="rect1041-4-89"
       width="0.23342772"
       height="1.438031"
       x="27.815149"
       y="61.876934"
       rx="0.097706966"
       ry="0.082080185"
       transform="matrix(0.99963879,-0.02687537,0.01279373,0.99991816,0,0)" />
    <rect
       style="fill:#4d4d4d;fill-rule:evenodd;stroke-width:0.20960338"
       id="rect1041-4-89-1"
       width="0.23342389"
       height="1.404986"
       x="21.820078"
       y="61.741177"
       rx="0.097707555"
       ry="0.082080275"
       transform="matrix(0.9996552,-0.02625812,0.01309463,0.99991426,0,0)" />
    <path
       style="fill:#b3b3b3;stroke-width:0.21675158"
       id="path1291"
       sodipodi:type="arc"
       sodipodi:cx="-67.967842"
       sodipodi:cy="-4.3045506"
       sodipodi:rx="0.34290633"
       sodipodi:ry="0.7682671"
       sodipodi:start="0"
       sodipodi:end="2.9486989"
       sodipodi:open="true"
       d="m -67.624936,-4.3045506 a 0.34290633,0.7682671 0 0 1 -0.309885,0.7646966 0.34290633,0.7682671 0 0 1 -0.369568,-0.61742"
       transform="matrix(-0.37962968,-0.92513853,-0.98738975,0.15830818,0,0)" />
    <rect
       style="fill:#b3b3b3;fill-rule:evenodd;stroke-width:0.20648488"
       id="rect1293"
       width="0.088356704"
       height="5.2043133"
       x="31.111572"
       y="51.283924"
       rx="0.1"
       ry="0.1" />
    <rect
       style="fill:#b3b3b3;fill-rule:evenodd;stroke-width:0.48033687"
       id="rect1316"
       width="0.80681992"
       height="4.6187515"
       x="30.344753"
       y="51.755981" />
    <rect
       style="fill:#666666;fill-rule:evenodd;stroke-width:0.32305863"
       id="rect1318"
       width="0.7011975"
       height="0.87320507"
       x="35.470875"
       y="48.134628"
       transform="matrix(0.99431422,0.10648585,-0.10084982,0.99490166,0,0)" />
    <rect
       style="fill:#666666;fill-rule:evenodd;stroke-width:0.19480851"
       id="rect1322"
       width="0.71195787"
       height="9.3361511"
       x="30.320917"
       y="52.005783"
       rx="0.60000002"
       ry="0.60000002" />
    <rect
       style="fill:#666666;fill-rule:evenodd;stroke-width:0.26160815"
       id="rect1324"
       width="0.80579543"
       height="4.162508"
       x="31.199928"
       y="52.770065"
       rx="0.294"
       ry="0.285" />
    <rect
       style="fill:#999999;fill-rule:evenodd;stroke-width:0.29199696"
       id="rect1326"
       width="0.071926497"
       height="4.1818614"
       x="31.032875"
       y="52.379959"
       rx="0.2939997"
       ry="0.28500122" />
    <rect
       style="fill:#e6e6e6;fill-rule:evenodd;stroke-width:0.27001572"
       id="rect1358"
       width="0.56479895"
       height="0.25685886"
       x="31.136349"
       y="47.815815" />
    <rect
       style="fill:#e6e6e6;fill-rule:evenodd;stroke-width:0.29449621"
       id="rect1358-5"
       width="0.65834332"
       height="0.26213041"
       x="29.908514"
       y="47.809509" />
    <rect
       style="fill:#e6e6e6;fill-rule:evenodd;stroke-width:0.42999989"
       id="rect1381"
       width="0.23162109"
       height="0.40847373"
       x="31.601929"
       y="47.815815" />
    <rect
       style="fill:#e6e6e6;fill-rule:evenodd;stroke-width:0.21051992"
       id="rect5043-5-5"
       width="0.35441536"
       height="0.46653438"
       x="-31.833895"
       y="47.842587"
       rx="0.10000001"
       ry="0.1"
       transform="scale(-1,1)" />
    <rect
       style="fill:#e6e6e6;fill-rule:evenodd;stroke-width:0.21051992"
       id="rect5043-5-5-8"
       width="0.35441536"
       height="0.46653438"
       x="-30.26293"
       y="47.809509"
       rx="0.10000001"
       ry="0.1"
       transform="scale(-1,1)" />
    <rect
       style="fill:#ffffff;fill-rule:evenodd;stroke-width:0.26458332"
       id="rect1399"
       width="0.058465209"
       height="0.35371453"
       x="29.908514"
       y="47.809509" />
    <rect
       style="fill:#808080;fill-rule:evenodd;stroke-width:0.19047582"
       id="rect1401"
       width="0.058465213"
       height="0.091583788"
       x="29.908514"
       y="48.07164" />
    <path
       style="fill:#ffffff;stroke-width:0.33813041"
       id="path1082-8"
       sodipodi:type="arc"
       sodipodi:cx="-64.818756"
       sodipodi:cy="16.059492"
       sodipodi:rx="0.12768361"
       sodipodi:ry="0.14122316"
       sodipodi:start="0"
       sodipodi:end="3.2696299"
       d="m -64.691072,16.059492 a 0.12768361,0.14122316 0 0 1 -0.06862,0.125204 0.12768361,0.14122316 0 0 1 -0.132103,-0.0094 0.12768361,0.14122316 0 0 1 -0.0536,-0.13387 l 0.126639,0.01803 z"
       transform="matrix(-0.05899319,-0.99825839,0.99461769,-0.10361298,0,0)" />
    <path
       style="fill:#ffffff;stroke-width:0.33813041"
       id="path1082-8-2"
       sodipodi:type="arc"
       sodipodi:cx="-65.199928"
       sodipodi:cy="16.044651"
       sodipodi:rx="0.12768361"
       sodipodi:ry="0.14122316"
       sodipodi:start="0"
       sodipodi:end="3.2381532"
       d="m -65.072245,16.044651 a 0.12768361,0.14122316 0 0 1 -0.06743,0.124512 0.12768361,0.14122316 0 0 1 -0.131073,-0.007 0.12768361,0.14122316 0 0 1 -0.05627,-0.131122 l 0.127089,0.01362 z"
       transform="matrix(-0.05899319,-0.99825839,0.99461769,-0.10361298,0,0)" />
    <path
       id="path134"
       sodipodi:type="arc"
       sodipodi:cx="63.361942"
       sodipodi:cy="-32.792793"
       sodipodi:rx="0.18604"
       sodipodi:ry="0.20633504"
       sodipodi:start="0"
       sodipodi:end="3.1415927"
       sodipodi:open="true"
       d="m 63.547982,-32.792793 a 0.18604,0.20633504 0 0 1 -0.09302,0.178691 0.18604,0.20633504 0 0 1 -0.18604,0 0.18604,0.20633504 0 0 1 -0.09302,-0.178691"
       style="fill:#ffffff;stroke-width:0.30619854"
       transform="matrix(0.01422619,0.9998988,-0.99994425,0.0105596,0,0)" />
    <rect
       style="fill:#808080;stroke-width:0.26688936"
       id="rect136"
       width="0.4782947"
       height="2.0799811"
       x="33.221241"
       y="52.304844" />
    <rect
       style="fill:#b3b3b3;stroke-width:0.19488734"
       id="rect139"
       width="0.59634513"
       height="0.50280076"
       x="20.341175"
       y="62.901836" />
  </g>
</svg>
