<?xml version="1.0" encoding="UTF-8" standalone="no"?>
<!-- Created with Inkscape (http://www.inkscape.org/) -->

<svg
   xmlns:dc="http://purl.org/dc/elements/1.1/"
   xmlns:cc="http://creativecommons.org/ns#"
   xmlns:rdf="http://www.w3.org/1999/02/22-rdf-syntax-ns#"
   xmlns:svg="http://www.w3.org/2000/svg"
   xmlns="http://www.w3.org/2000/svg"
   xmlns:sodipodi="http://sodipodi.sourceforge.net/DTD/sodipodi-0.dtd"
   xmlns:inkscape="http://www.inkscape.org/namespaces/inkscape"
   width="3.0360146mm"
   height="3.0568953mm"
   viewBox="0 0 3.0360146 3.0568953"
   version="1.1"
   id="svg8"
   inkscape:version="0.92.5 (2060ec1f9f, 2020-04-08)"
   sodipodi:docname="IMRAN UFL.svg">
  <defs
     id="defs2" />
  <sodipodi:namedview
     id="base"
     pagecolor="#ffffff"
     bordercolor="#666666"
     borderopacity="1.0"
     inkscape:pageopacity="0.0"
     inkscape:pageshadow="2"
     inkscape:zoom="45.254834"
     inkscape:cx="5.4978798"
     inkscape:cy="3.1755576"
     inkscape:document-units="mm"
     inkscape:current-layer="layer1"
     showgrid="false"
     inkscape:window-width="1920"
     inkscape:window-height="1001"
     inkscape:window-x="-9"
     inkscape:window-y="-9"
     inkscape:window-maximized="1" />
  <metadata
     id="metadata5">
    <rdf:RDF>
      <cc:Work
         rdf:about="">
        <dc:format>image/svg+xml</dc:format>
        <dc:type
           rdf:resource="http://purl.org/dc/dcmitype/StillImage" />
        <dc:title></dc:title>
      </cc:Work>
    </rdf:RDF>
  </metadata>
  <g
     inkscape:label="Layer 1"
     inkscape:groupmode="layer"
     id="layer1"
     transform="translate(-69.594475,-112.62535)">
    <rect
       style="fill:#d4aa00;fill-rule:evenodd;stroke-width:0.26458332"
       id="rect819"
       width="0.60135639"
       height="3.0568953"
       x="70.794022"
       y="112.62535" />
    <rect
       style="fill:#aa8800;fill-rule:evenodd;stroke-width:0.26458332"
       id="rect837"
       width="3.0360146"
       height="1.8291258"
       x="69.594475"
       y="113.24802" />
    <rect
       style="fill:#ffdd55;fill-rule:evenodd;stroke-width:0.26458332"
       id="rect815"
       width="2.5891733"
       height="2.587503"
       x="69.830399"
       y="112.88818"
       rx="0.40000001"
       ry="0.40000001" />
    <rect
       style="fill:#d4aa00;fill-rule:evenodd;stroke-width:0.26458332"
       id="rect819-9"
       width="0.60135639"
       height="1.2194176"
       x="70.794022"
       y="112.62535" />
    <ellipse
       style="fill:#999999;stroke-width:0.26458332"
       id="path841"
       cx="71.099953"
       cy="114.14379"
       rx="0.94170755"
       ry="0.93335527" />
    <ellipse
       style="fill:#666666;stroke-width:0.26458332"
       id="path841-8"
       cx="71.102043"
       cy="114.14588"
       rx="0.89994669"
       ry="0.89577049" />
    <ellipse
       style="fill:#ffeeaa;stroke-width:0.26458332"
       id="path841-8-2"
       cx="71.106224"
       cy="114.1438"
       rx="0.86236197"
       ry="0.8560977" />
    <rect
       style="fill:#cccccc;fill-rule:evenodd;stroke-width:0.26458329"
       id="rect4578"
       width="1.5054581"
       height="0.82523662"
       x="70.352463"
       y="113.73347" />
    <ellipse
       style="fill:#cccccc;stroke-width:0.26458332"
       id="path4580"
       cx="71.12085"
       cy="114.17094"
       rx="0.582564"
       ry="0.60135651" />
    <rect
       style="fill:#cccccc;fill-rule:evenodd;stroke-width:0.26458332"
       id="rect4602"
       width="0.6368742"
       height="0.81851286"
       x="70.243843"
       y="113.73663"
       rx="0.49999997"
       ry="0.49999991" />
    <rect
       style="fill:#cccccc;fill-rule:evenodd;stroke-width:0.26458332"
       id="rect4602-2"
       width="0.63894123"
       height="0.7811799"
       x="71.328201"
       y="113.7321"
       rx="0.5"
       ry="0.49999994" />
    <ellipse
       style="fill:#cccccc;stroke-width:0.26458332"
       id="path4625"
       cx="70.409874"
       cy="114.44785"
       rx="0.097446986"
       ry="0.10187639" />
    <ellipse
       style="fill:#cccccc;stroke-width:0.2916621"
       id="path4627"
       cx="38.579601"
       cy="108.54833"
       rx="0.026724098"
       ry="0.11096837"
       transform="matrix(0.95770599,0.28774855,0.30731027,0.95160937,0,0)" />
    <path
       style="fill:#cccccc;stroke-width:0.26458332"
       id="path4631"
       sodipodi:type="arc"
       sodipodi:cx="70.375923"
       sodipodi:cy="114.3622"
       sodipodi:rx="0.075299941"
       sodipodi:ry="0.078252882"
       sodipodi:start="0"
       sodipodi:end="0.38326034"
       d="m 70.451223,114.3622 a 0.07529994,0.07825288 0 0 1 -0.0055,0.0293 l -0.06984,-0.0293 z" />
    <path
       style="fill:#cccccc;stroke-width:0.27636829"
       id="path4635"
       sodipodi:type="arc"
       sodipodi:cx="20.427217"
       sodipodi:cy="124.8405"
       sodipodi:rx="0.065702893"
       sodipodi:ry="0.1312906"
       sodipodi:start="1.4568261"
       sodipodi:end="4.45963"
       d="m 20.434689,124.97094 a 0.06570289,0.1312906 0 0 1 -0.07207,-0.1065 0.06570289,0.1312906 0 0 1 0.04817,-0.15106 l 0.01643,0.12712 z"
       transform="matrix(1,0,0.39995751,0.91653368,0,0)" />
    <path
       style="fill:#cccccc;stroke-width:0.26458332"
       id="path4639"
       sodipodi:type="arc"
       sodipodi:cx="70.460976"
       sodipodi:cy="114.22574"
       sodipodi:rx="0.20995806"
       sodipodi:ry="0.26886147"
       sodipodi:start="6.2271735"
       sodipodi:end="4.4596304"
       d="m 70.670604,114.21069 a 0.20995806,0.26886147 0 0 1 -0.184162,0.28192 0.20995806,0.26886147 0 0 1 -0.231757,-0.21684 0.20995806,0.26886147 0 0 1 0.153785,-0.31035 l 0.05251,0.26032 z" />
    <path
       style="fill:#cccccc;stroke-width:0.26458332"
       id="path4641"
       sodipodi:type="arc"
       sodipodi:cx="70.379448"
       sodipodi:cy="114.24586"
       sodipodi:rx="0.1063058"
       sodipodi:ry="0.17569987"
       sodipodi:start="1.4568263"
       sodipodi:end="4.4596304"
       d="m 70.391537,114.42042 a 0.1063058,0.17569987 0 0 1 -0.116613,-0.14253 0.1063058,0.17569987 0 0 1 0.07794,-0.20215 l 0.02658,0.17012 z" />
    <path
       style="fill:#cccccc;stroke-width:0.26458332"
       id="path4643"
       sodipodi:type="arc"
       sodipodi:cx="70.342522"
       sodipodi:cy="114.28891"
       sodipodi:rx="0.061075263"
       sodipodi:ry="0.080389664"
       sodipodi:start="6.2271777"
       sodipodi:end="4.4596304"
       d="m 70.403501,114.28441 a 0.06107526,0.08038966 0 0 1 -0.05357,0.0843 0.06107526,0.08038966 0 0 1 -0.06742,-0.0648 0.06107526,0.08038966 0 0 1 0.04474,-0.0928 l 0.01527,0.0778 z" />
    <path
       style="fill:#cccccc;stroke-width:0.28907871"
       id="path4651"
       sodipodi:type="arc"
       sodipodi:cx="-146.58426"
       sodipodi:cy="24.158913"
       sodipodi:rx="0.22826828"
       sodipodi:ry="0.24961536"
       sodipodi:start="2.0141711"
       sodipodi:end="3.9611296"
       d="m -146.68218,24.384392 a 0.22826828,0.24961536 0 0 1 -0.12765,-0.187205 0.22826828,0.24961536 0 0 1 0.0698,-0.220701"
       transform="matrix(-0.39918848,-0.91686889,0.55006427,-0.83512233,0,0)"
       sodipodi:open="true" />
    <path
       style="fill:#cccccc;stroke-width:0.26458332"
       id="path4653"
       sodipodi:type="arc"
       sodipodi:cx="24.566074"
       sodipodi:cy="132.09007"
       sodipodi:rx="0.020670572"
       sodipodi:ry="0.074564219"
       sodipodi:start="6.2271777"
       sodipodi:end="4.4596304"
       d="m 24.586713,132.0859 a 0.02067057,0.07456422 0 0 1 -0.01813,0.0782 0.02067057,0.07456422 0 0 1 -0.02282,-0.0601 0.02067057,0.07456422 0 0 1 0.01514,-0.0861"
       sodipodi:open="true"
       transform="matrix(-0.74194881,0.67045654,0.67045654,0.74194881,0,0)" />
    <ellipse
       style="fill:#cccccc;stroke-width:0.26458332"
       id="path4657"
       cx="70.390533"
       cy="114.4866"
       rx="0.053743485"
       ry="0.029455569" />
    <ellipse
       style="fill:#cccccc;stroke-width:0.26458332"
       id="path4659"
       cx="70.370895"
       cy="114.43441"
       rx="0.060978189"
       ry="0.11266983" />
    <ellipse
       style="fill:#cccccc;stroke-width:0.26458332"
       id="path4663"
       cx="70.369865"
       cy="113.94554"
       rx="0.089916989"
       ry="0.16846517" />
    <ellipse
       style="fill:#cccccc;stroke-width:0.26458332"
       id="path4665"
       cx="70.36676"
       cy="114.06129"
       rx="0.11162109"
       ry="0.24494629" />
    <ellipse
       style="fill:#cccccc;stroke-width:0.26477507"
       id="path4667"
       cx="86.097511"
       cy="98.06266"
       rx="0.056688569"
       ry="0.16599147"
       transform="matrix(0.98045056,0.19676558,-0.14374134,0.98961529,0,0)" />
    <ellipse
       style="fill:#cccccc;stroke-width:0.26458332"
       id="path4669"
       cx="70.324913"
       cy="114.10883"
       rx="0.079064935"
       ry="0.22530924" />
    <ellipse
       style="fill:#cccccc;stroke-width:0.26458332"
       id="path4673"
       cx="-81.880089"
       cy="105.82413"
       rx="0.11110432"
       ry="0.011368816"
       transform="rotate(-69.432551)" />
    <ellipse
       style="fill:#cccccc;stroke-width:0.26458332"
       id="path4675"
       cx="70.372444"
       cy="113.79516"
       rx="0.039790854"
       ry="0.036690265" />
    <ellipse
       style="fill:#cccccc;stroke-width:0.26458332"
       id="path4677"
       cx="70.369347"
       cy="113.80291"
       rx="0.037723795"
       ry="0.068212889" />
    <ellipse
       style="fill:#cccccc;stroke-width:0.26479259"
       id="path4679"
       cx="51.117989"
       cy="127.17558"
       rx="0.021855421"
       ry="0.071742482"
       transform="matrix(0.97641543,-0.21590025,0.16068934,0.98700503,0,0)" />
    <path
       style="fill:#cccccc;stroke-width:0.29698959"
       id="path4651-9"
       sodipodi:type="arc"
       sodipodi:cx="-148.08212"
       sodipodi:cy="23.801798"
       sodipodi:rx="0.23846747"
       sodipodi:ry="0.25955909"
       sodipodi:start="2.0141711"
       sodipodi:end="3.9611296"
       d="m -148.18442,24.03626 a 0.23846747,0.25955909 0 0 1 -0.13335,-0.194663 0.23846747,0.25955909 0 0 1 0.0729,-0.229493"
       transform="matrix(-0.40840644,-0.91280018,0.47601513,-0.87943709,0,0)"
       sodipodi:open="true" />
    <path
       style="fill:#cccccc;stroke-width:0.32732219"
       id="path4651-2"
       sodipodi:type="arc"
       sodipodi:cx="-198.97292"
       sodipodi:cy="-114.56187"
       sodipodi:rx="0.11926343"
       sodipodi:ry="0.17097437"
       sodipodi:start="2.0141711"
       sodipodi:end="3.9611296"
       d="m -199.02408,-114.40742 a 0.11926343,0.17097437 0 0 1 -0.0667,-0.12823 0.11926343,0.17097437 0 0 1 0.0365,-0.15117"
       transform="matrix(-0.91190169,-0.4104087,0.95848524,-0.28514214,0,0)"
       sodipodi:open="true" />
    <ellipse
       style="fill:#cccccc;stroke-width:0.26759452"
       id="path4702"
       cx="106.34122"
       cy="108.73145"
       rx="0.01607793"
       ry="0.11811203"
       transform="matrix(0.99451704,0.10457461,-0.31145497,0.95026091,0,0)" />
    <ellipse
       style="fill:#cccccc;stroke-width:0.26759449"
       id="path4702-6"
       cx="106.34518"
       cy="108.69718"
       rx="0.01607793"
       ry="0.11811203"
       transform="matrix(0.99451704,0.10457461,-0.31145496,0.95026092,0,0)" />
    <ellipse
       style="fill:#cccccc;stroke-width:0.26759449"
       id="path4702-1"
       cx="93.046104"
       cy="119.51929"
       rx="0.01607793"
       ry="0.11811203"
       transform="matrix(0.9994095,-0.03436075,-0.17665808,0.98427228,0,0)" />
    <ellipse
       style="fill:#cccccc;stroke-width:0.27268812"
       id="path4702-5"
       cx="29.485386"
       cy="141.69476"
       rx="0.014368432"
       ry="0.11562941"
       transform="matrix(0.76511936,-0.64388847,0.3481973,0.93742127,0,0)" />
    <ellipse
       style="fill:#cccccc;stroke-width:0.27669433"
       id="path4702-5-8"
       cx="34.408482"
       cy="144.84735"
       rx="0.014943524"
       ry="0.12523611"
       transform="matrix(0.73567416,-0.67733561,0.32148751,0.94691382,0,0)" />
    <ellipse
       style="fill:#cccccc;stroke-width:0.26482561"
       id="path4702-5-0"
       cx="57.272522"
       cy="125.55884"
       rx="0.018831914"
       ry="0.13255571"
       transform="matrix(0.9828528,-0.18439188,0.12463313,0.99220289,0,0)" />
    <ellipse
       style="fill:#cccccc;stroke-width:0.27268812"
       id="path4702-5-81"
       cx="64.033073"
       cy="142.22015"
       rx="0.014368431"
       ry="0.1156294"
       transform="matrix(0.90336079,-0.42888144,0.09916866,0.99507064,0,0)" />
    <ellipse
       style="fill:#aa8800;stroke-width:0.26458332"
       id="path4758"
       cx="71.121246"
       cy="114.16674"
       rx="0.2459798"
       ry="0.23771158" />
  </g>
</svg>
